<svg width="89" height="54" viewBox="0 0 89 54" fill="none" xmlns="http://www.w3.org/2000/svg">
<path d="M24.6304 37.9056V41.1216C24.6304 41.3456 24.6824 41.5096 24.7864 41.6136C24.8984 41.7096 25.0824 41.7576 25.3384 41.7576H26.1184V43.1736H25.0624C23.6464 43.1736 22.9384 42.4856 22.9384 41.1096V37.9056H22.1464V36.5256H22.9384V34.8816H24.6304V36.5256H26.1184V37.9056H24.6304ZM33.6027 36.5256V43.1736H31.9107V42.3336C31.6947 42.6216 31.4107 42.8496 31.0587 43.0176C30.7147 43.1776 30.3387 43.2576 29.9307 43.2576C29.4107 43.2576 28.9507 43.1496 28.5507 42.9336C28.1507 42.7096 27.8347 42.3856 27.6027 41.9616C27.3787 41.5296 27.2667 41.0176 27.2667 40.4256V36.5256H28.9467V40.1856C28.9467 40.7136 29.0787 41.1216 29.3427 41.4096C29.6067 41.6896 29.9667 41.8296 30.4227 41.8296C30.8867 41.8296 31.2507 41.6896 31.5147 41.4096C31.7787 41.1216 31.9107 40.7136 31.9107 40.1856V36.5256H33.6027ZM36.9403 34.2936V43.1736H35.2603V34.2936H36.9403ZM38.1682 39.8256C38.1682 39.1536 38.3002 38.5576 38.5642 38.0376C38.8362 37.5176 39.2002 37.1176 39.6562 36.8376C40.1202 36.5576 40.6362 36.4176 41.2042 36.4176C41.7002 36.4176 42.1322 36.5176 42.5002 36.7176C42.8762 36.9176 43.1762 37.1696 43.4002 37.4736V36.5256H45.0922V43.1736H43.4002V42.2016C43.1842 42.5136 42.8842 42.7736 42.5002 42.9816C42.1242 43.1816 41.6882 43.2816 41.1922 43.2816C40.6322 43.2816 40.1202 43.1376 39.6562 42.8496C39.2002 42.5616 38.8362 42.1576 38.5642 41.6376C38.3002 41.1096 38.1682 40.5056 38.1682 39.8256ZM43.4002 39.8496C43.4002 39.4416 43.3202 39.0936 43.1602 38.8056C43.0002 38.5096 42.7842 38.2856 42.5122 38.1336C42.2402 37.9736 41.9482 37.8936 41.6362 37.8936C41.3242 37.8936 41.0362 37.9696 40.7722 38.1216C40.5082 38.2736 40.2922 38.4976 40.1242 38.7936C39.9642 39.0816 39.8842 39.4256 39.8842 39.8256C39.8842 40.2256 39.9642 40.5776 40.1242 40.8816C40.2922 41.1776 40.5082 41.4056 40.7722 41.5656C41.0442 41.7256 41.3322 41.8056 41.6362 41.8056C41.9482 41.8056 42.2402 41.7296 42.5122 41.5776C42.7842 41.4176 43.0002 41.1936 43.1602 40.9056C43.3202 40.6096 43.4002 40.2576 43.4002 39.8496ZM48.413 37.4976C48.629 37.1776 48.925 36.9176 49.301 36.7176C49.685 36.5176 50.121 36.4176 50.609 36.4176C51.177 36.4176 51.689 36.5576 52.145 36.8376C52.609 37.1176 52.973 37.5176 53.237 38.0376C53.509 38.5496 53.645 39.1456 53.645 39.8256C53.645 40.5056 53.509 41.1096 53.237 41.6376C52.973 42.1576 52.609 42.5616 52.145 42.8496C51.689 43.1376 51.177 43.2816 50.609 43.2816C50.113 43.2816 49.677 43.1856 49.301 42.9936C48.933 42.7936 48.637 42.5376 48.413 42.2256V43.1736H46.733V34.2936H48.413V37.4976ZM51.929 39.8256C51.929 39.4256 51.845 39.0816 51.677 38.7936C51.517 38.4976 51.301 38.2736 51.029 38.1216C50.765 37.9696 50.477 37.8936 50.165 37.8936C49.861 37.8936 49.573 37.9736 49.301 38.1336C49.037 38.2856 48.821 38.5096 48.653 38.8056C48.493 39.1016 48.413 39.4496 48.413 39.8496C48.413 40.2496 48.493 40.5976 48.653 40.8936C48.821 41.1896 49.037 41.4176 49.301 41.5776C49.573 41.7296 49.861 41.8056 50.165 41.8056C50.477 41.8056 50.765 41.7256 51.029 41.5656C51.301 41.4056 51.517 41.1776 51.677 40.8816C51.845 40.5856 51.929 40.2336 51.929 39.8256Z" fill="black"/>
<path d="M0 30.7464C0 31.0126 0.0484648 31.0242 0.884482 31.0705C2.41112 31.1399 3.17444 31.7302 3.33195 32.9338C3.3683 33.2694 3.39254 37.5401 3.3683 42.4473C3.33195 50.4793 3.30772 51.3936 3.12598 51.7061C2.67768 52.4931 2.01129 52.8056 0.775437 52.8056H0V53.1528V53.5L10.3836 53.4769L20.7672 53.4421L20.852 53.0371C20.9247 52.7361 21.6153 47.991 21.8455 46.3244C21.8576 46.2202 21.7486 46.1392 21.5547 46.1161C21.2639 46.0814 21.2155 46.1508 20.9126 46.9841C19.9917 49.4956 18.3682 51.0464 15.9328 51.7524C14.176 52.2732 10.638 52.3079 9.86258 51.8218C9.23254 51.4399 9.20831 51.1969 9.20831 46.6137V42.3778L10.0322 42.4588C12.5281 42.6903 13.5338 43.9055 14.2486 47.5628C14.285 47.7711 14.3819 47.829 14.6606 47.829H15.0241L20.9126 41.151L15.0241 35.6767H14.6727C14.2971 35.6767 14.176 35.8388 14.176 36.348C14.176 36.8225 13.764 38.2345 13.4247 38.9405C12.7705 40.2946 11.7406 40.9658 10.1291 41.0816L9.20831 41.151V36.429V31.707L11.7891 31.7765C14.5516 31.869 15.2906 31.9848 16.4417 32.5172C17.8108 33.1653 18.7559 34.4615 19.2405 36.348C19.4344 37.1234 19.4707 37.1813 19.7857 37.1813H20.1129V33.825V30.4686H10.0564H0V30.7464Z" fill="#0A2FB6" fill-opacity="0.89"/>
<path d="M70.1837 20.2817H53.9437C53.0826 20.2826 52.2571 20.5882 51.6481 21.1313C51.0392 21.6745 50.6967 22.411 50.6957 23.1791V31.8712C50.6967 32.6394 51.0392 33.3758 51.6481 33.919C52.2571 34.4622 53.0826 34.7677 53.9437 34.7686H60.4397V37.666H55.5677V40.5634H68.5597V37.666H63.6877V34.7686H70.1837C71.0449 34.7677 71.8704 34.4622 72.4793 33.919C73.0882 33.3758 73.4307 32.6394 73.4317 31.8712V23.1791C73.4307 22.411 73.0882 21.6745 72.4793 21.1313C71.8704 20.5882 71.0449 20.2826 70.1837 20.2817ZM53.9437 31.8712V23.1791H70.1837L70.1862 31.8712H53.9437Z" fill="#333333"/>
<path d="M78.0143 11.7692C77.3057 8.45848 75.3251 5.47181 72.4137 3.32357C69.5022 1.17533 65.8421 0 62.0637 0C58.2853 0 54.6252 1.17533 51.7137 3.32357C48.8022 5.47181 46.8216 8.45848 46.1131 11.7692C43.1867 12.2341 40.5524 13.6386 38.7074 15.7175C36.8625 17.7964 35.9345 20.4059 36.0987 23.0534C36.263 25.7009 37.508 28.2031 39.5989 30.0878C41.6897 31.9724 44.4817 33.109 47.4477 33.2831V30.3857C45.212 30.2054 43.1347 29.2801 41.6299 27.7942C40.1251 26.3084 39.3033 24.3711 39.3285 22.3688C39.3538 20.3665 40.224 18.4462 41.7659 16.9909C43.3077 15.5356 45.4078 14.6521 47.6474 14.5166L49.0059 14.4346L49.1521 13.2264C49.4993 10.388 51.0092 7.76387 53.3922 5.85753C55.7751 3.95119 58.8632 2.89688 62.064 2.89688C65.2648 2.89688 68.3529 3.95119 70.7359 5.85753C73.1188 7.76387 74.6287 10.388 74.9759 13.2264L75.1221 14.4346L76.4806 14.5166C78.7202 14.6522 80.8202 15.5357 82.362 16.9911C83.9038 18.4465 84.774 20.3668 84.7991 22.3691C84.8242 24.3714 84.0024 26.3086 82.4975 27.7944C80.9927 29.2802 78.9153 30.2055 76.6797 30.3857V33.2831C79.6457 33.109 82.4376 31.9724 84.5285 30.0878C86.6193 28.2031 87.8644 25.7009 88.0286 23.0534C88.1929 20.4059 87.2649 17.7964 85.4199 15.7175C83.575 13.6386 80.9406 12.2341 78.0143 11.7692Z" fill="#0A2FB6" fill-opacity="0.89"/>
</svg>
